# xmcd
#
# Track frame offsets:
#	187
#	12230
#	31457
#	46135
#	70312
#	91675
#	108962
#	134772
#	153780
#	169512
#	202622
#	234385
#	247592
#	278765
#	299507
#
# Disc length: 4544 seconds
#
# Revision: 2
# Processed by: cddbd v1.5.2PL0 Copyright (c) Steve Scherf et al.
# Submitted via: audiograbber 1.83.01
#
DISCID=b911be0f
DTITLE=Various Artist - American Folk Blues Festival '81
DYEAR=1981
DGENRE=Blues Acoustic
TTITLE0=Bowling Green John - Bowling Green Bag
TTITLE1=Bowling Green John - Bye Bye Baby
TTITLE2=Bowling Green John - Last Fair Deal
TTITLE3=Sunnyland Slim - One Room Country Shack
TTITLE4=Sunnyland Slim - Tin Pan Alley
TTITLE5=Sunnyland Slim - Dust My Broom
TTITLE6=Louisiana Red - Woodchopping Blues
TTITLE7=Hubert Sumlin - I Love
TTITLE8=Hubert Sumlin - Everything I Do Gonna Be Funky
TTITLE9=Carey Bell's Blues Harp Band - I Need You So Bad
TTITLE10=Carey Bell's Blues Harp Band - Man And The Blues
TTITLE11=Margie Evans - 29 Ways
TTITLE12=Margie Evans - Trouble Trouble
TTITLE13=Margie Evans - Hound Dog
TTITLE14=Margie Evans - Next Time I See You
EXTD=
EXTT0=
EXTT1=
EXTT2=
EXTT3=
EXTT4=
EXTT5=
EXTT6=
EXTT7=
EXTT8=
EXTT9=
EXTT10=
EXTT11=
EXTT12=
EXTT13=
EXTT14=
PLAYORDER=
